<?xml version="1.0" standalone="no"?>
<!DOCTYPE svg PUBLIC "-//W3C//DTD SVG 20010904//EN"
 "http://www.w3.org/TR/2001/REC-SVG-20010904/DTD/svg10.dtd">
<svg version="1.0" xmlns="http://www.w3.org/2000/svg"
 width="100%" height="100%" viewBox="0 0 285 285"
 preserveAspectRatio="xMidYMid meet">
<g transform="translate(0.000000,288.000000) scale(0.100000,-0.100000)"
fill="#FFFFFF" stroke="none">
<path d="M1290 2799 c-494 -62 -941 -415 -1110 -877 -193 -530 -63 -1102 338
-1484 159 -150 321 -248 525 -313 162 -53 279 -68 477 -62 176 6 289 27 433
81 457 173 791 578 871 1055 21 122 21 350 1 467 -81 469 -403 868 -845 1045
-154 62 -288 89 -465 94 -82 2 -184 0 -225 -6z m331 -49 c509 -58 943 -414
1107 -905 87 -261 84 -572 -7 -843 -136 -406 -487 -735 -902 -846 -260 -69
-554 -58 -799 29 -223 80 -436 232 -583 415 -326 408 -387 962 -156 1423 182
363 519 624 915 706 151 31 279 38 425 21z"/>
<path d="M1358 2673 c-2 -5 -2 -60 0 -124 l3 -116 26 0 26 0 -6 91 -5 91 44
-87 c41 -81 47 -88 74 -88 l30 0 0 121 0 120 -27 -3 c-26 -3 -27 -5 -25 -53 2
-27 5 -62 8 -77 10 -50 -10 -28 -50 53 -35 71 -42 79 -67 79 -15 0 -29 -3 -31
-7z"/>
<path d="M1610 2624 c0 -25 -5 -77 -11 -115 -6 -39 -9 -72 -7 -74 1 -2 14 -5
28 -7 24 -3 25 -1 36 102 18 148 19 140 -16 140 -29 0 -30 -2 -30 -46z"/>
<path d="M1195 2642 l-60 -14 23 -97 c13 -53 25 -106 27 -118 5 -20 6 -21 52
-7 25 8 57 14 70 14 18 0 23 5 23 25 0 28 -20 32 -66 15 -31 -12 -30 -13 -39
22 -6 24 -4 26 34 33 35 6 41 10 41 31 0 27 -2 28 -50 14 -25 -7 -36 -7 -42 3
-16 25 -7 35 37 41 46 7 50 12 39 40 -7 18 -8 18 -89 -2z"/>
<path d="M1715 2556 c-15 -55 -29 -108 -32 -117 -3 -11 3 -18 18 -22 13 -4 24
-5 26 -3 2 1 10 34 19 72 10 38 20 73 24 77 4 4 10 -18 14 -50 12 -100 23
-130 52 -137 15 -4 27 -6 28 -4 9 12 63 225 59 230 -2 5 -15 8 -27 8 -21 0
-25 -7 -37 -75 -13 -75 -29 -100 -29 -47 -1 15 -6 53 -13 85 -11 51 -16 60
-43 72 l-31 13 -28 -102z"/>
<path d="M963 2560 c-39 -17 -42 -21 -34 -42 55 -137 80 -193 88 -195 5 -2 17
3 27 10 18 13 18 15 1 47 -17 33 -17 35 1 45 63 36 82 92 44 133 -26 27 -70
28 -127 2z m88 -41 c9 -18 7 -25 -9 -41 -23 -24 -37 -18 -46 18 -11 43 34 62
55 23z"/>
<path d="M1976 2518 c-23 -32 -20 -62 10 -97 46 -55 18 -90 -35 -45 -31 26
-32 26 -46 8 -13 -17 -12 -22 17 -46 46 -39 101 -42 131 -7 25 31 21 61 -13
104 -23 29 -27 41 -19 51 12 15 36 6 59 -21 12 -14 15 -14 31 1 22 20 13 36
-32 60 -42 21 -85 18 -103 -8z"/>
<path d="M2141 2380 c-67 -88 -72 -127 -23 -171 38 -34 89 -39 119 -11 11 9
39 41 63 71 35 42 41 56 33 70 -19 30 -38 21 -86 -45 -41 -56 -52 -65 -75 -62
-46 5 -40 43 17 118 47 60 49 66 34 82 -9 10 -19 18 -22 18 -3 0 -30 -32 -60
-70z"/>
<path d="M893 2379 c-33 -21 -42 -42 -23 -54 14 -9 81 38 78 54 -4 22 -20 22
-55 0z"/>
<path d="M695 2376 c-16 -8 -48 -29 -70 -48 l-39 -35 79 -93 80 -92 52 56 c44
47 53 63 53 93 0 47 -35 102 -76 119 -40 17 -41 17 -79 0z m79 -77 c14 -17 26
-37 26 -46 0 -19 -32 -74 -41 -71 -4 2 -27 27 -53 57 -43 51 -45 56 -29 73 25
28 67 23 97 -13z"/>
<path d="M2320 2200 c-41 -39 -78 -70 -82 -70 -17 0 -6 -24 34 -75 35 -45 45
-52 60 -44 23 13 23 16 -9 57 l-26 35 29 25 c118 101 113 95 94 120 -10 12
-20 22 -22 22 -1 -1 -37 -32 -78 -70z"/>
<path d="M522 2209 c-7 -12 -12 -22 -10 -23 2 -2 40 -35 85 -74 45 -40 85 -72
90 -72 9 0 37 40 31 45 -2 1 -41 34 -86 74 -46 39 -87 71 -91 71 -3 0 -12 -9
-19 -21z"/>
<path d="M1955 2218 c-3 -7 -9 -51 -14 -97 -14 -131 -38 -152 -226 -198 -138
-33 -162 -58 -142 -151 7 -35 6 -47 -7 -61 -21 -23 -20 -31 3 -31 24 0 45 50
36 89 -14 64 16 85 188 130 135 36 160 50 182 106 20 49 18 216 -2 223 -7 2
-15 -2 -18 -10z"/>
<path d="M2015 2180 c-4 -7 -4 -38 -1 -71 9 -72 -7 -128 -46 -168 -32 -33 -76
-51 -183 -75 -143 -33 -184 -71 -151 -138 16 -31 16 -33 -5 -49 -13 -10 -19
-21 -14 -29 12 -19 85 -3 125 29 19 15 41 31 48 35 20 12 51 -22 64 -71 13
-52 23 -53 121 -19 86 31 120 53 113 73 -4 8 7 30 24 51 33 41 38 62 14 62
-11 0 -14 5 -10 16 17 45 18 64 1 70 -13 5 -15 14 -10 44 8 48 -10 141 -38
199 -23 47 -40 60 -52 41z m51 -219 c-4 -42 -13 -75 -26 -93 -25 -34 -25 -41
0 -33 45 14 44 -31 -3 -64 -14 -10 -16 -16 -7 -21 33 -20 -32 -67 -116 -84
-30 -7 -32 -6 -38 33 -10 64 -66 80 -140 40 -44 -23 -65 -14 -47 20 16 28 50
45 151 71 151 40 180 63 201 156 17 74 33 57 25 -25z"/>
<path d="M434 2089 c-15 -30 -15 -32 13 -62 15 -17 41 -42 56 -55 36 -32 29
-37 -25 -19 -91 31 -102 31 -122 -3 -10 -17 -16 -33 -14 -34 1 -1 45 -31 97
-66 89 -61 94 -63 107 -45 8 10 14 21 14 24 0 3 -34 25 -76 49 -42 24 -74 45
-72 47 2 2 40 -7 83 -20 97 -30 92 -30 100 -4 6 17 -6 34 -56 85 -35 35 -60
64 -56 64 5 0 38 -18 74 -40 37 -22 70 -40 75 -40 8 0 32 40 26 44 -9 7 -199
106 -203 106 -2 0 -12 -14 -21 -31z"/>
<path d="M2539 2045 c-3 -2 -51 -14 -107 -26 -56 -12 -102 -26 -102 -31 0 -5
4 -18 10 -28 8 -15 16 -17 39 -10 25 7 32 5 45 -16 20 -30 20 -33 -5 -60 -19
-20 -19 -25 -7 -48 l14 -27 83 92 84 91 -16 34 c-16 32 -27 41 -38 29z m-29
-80 c-32 -33 -36 -34 -47 -18 -19 24 -16 33 10 33 12 0 29 5 37 10 32 21 32 8
0 -25z"/>
<path d="M1759 1653 c-7 -10 -25 -40 -39 -67 -30 -60 -63 -76 -172 -84 l-77
-5 -22 37 -22 38 -41 -41 c-22 -22 -38 -42 -35 -45 2 -3 21 -1 42 4 20 4 39 4
42 -1 7 -10 -27 -29 -51 -29 -16 0 -16 -1 -1 -18 20 -22 21 -32 4 -32 -8 0
-19 11 -25 25 -15 32 -26 32 -51 -4 -28 -39 -27 -43 15 -35 29 5 36 4 32 -7
-2 -8 -17 -15 -32 -17 -21 -3 -26 -7 -21 -20 11 -28 11 -34 -1 -39 -6 -2 -16
9 -23 23 l-12 27 -34 -33 c-42 -41 -44 -53 -8 -48 15 2 28 -2 30 -9 3 -8 -4
-13 -16 -13 -16 0 -21 -6 -21 -25 0 -16 -6 -25 -15 -25 -8 0 -15 9 -15 20 0
38 -39 20 -142 -66 -59 -48 -131 -98 -168 -115 -136 -63 -135 -63 -138 -91 -3
-27 -2 -28 45 -28 86 0 226 22 308 47 89 28 111 38 305 140 74 39 232 113 350
164 118 50 217 93 219 95 12 11 -38 94 -78 131 -36 33 -48 53 -61 100 -16 63
-43 80 -71 46z m46 -75 c4 -17 29 -55 55 -82 53 -57 67 -88 48 -104 -7 -6 -62
-31 -123 -57 -186 -79 -343 -154 -483 -229 -140 -75 -251 -115 -356 -127 -129
-15 -145 -9 -71 26 49 23 163 100 185 125 3 3 24 21 48 39 36 28 48 32 77 27
30 -6 38 -2 65 25 16 18 30 40 30 49 0 10 10 20 23 24 12 3 31 19 42 35 11 16
39 54 62 84 l43 56 72 -1 c101 -2 155 16 201 63 20 22 37 46 37 52 0 17 21 38
31 31 4 -2 11 -19 14 -36z"/>
<path d="M1975 1299 c-87 -57 -297 -165 -387 -200 -393 -152 -537 -193 -713
-205 -92 -6 -104 -9 -70 -15 53 -10 211 5 305 30 127 34 502 166 642 226 103
44 241 120 276 150 5 4 -10 35 -17 34 -3 0 -19 -9 -36 -20z"/>
<path d="M2359 953 c-29 -32 -62 -83 -57 -88 2 -2 45 -33 95 -69 l93 -65 31
45 c41 61 48 105 19 134 -17 17 -29 21 -51 16 -23 -4 -29 -2 -29 12 0 48 -63
57 -101 15z m59 -35 c8 -8 8 -17 0 -32 -16 -31 -16 -31 -38 -11 -19 17 -19 19
-4 37 20 21 26 22 42 6z m82 -53 c10 -12 10 -21 2 -41 -11 -24 -13 -24 -37 -8
-30 19 -30 22 -8 46 20 22 27 22 43 3z"/>
<path d="M566 952 c-3 -5 -41 -31 -85 -58 -44 -27 -81 -54 -81 -60 0 -5 6 -19
14 -29 13 -18 15 -18 46 8 17 15 35 27 40 27 6 0 20 -23 20 -34 0 -1 -13 -18
-30 -36 -35 -39 -35 -40 -15 -66 14 -18 16 -18 45 16 16 19 30 43 30 52 0 15
4 16 24 7 30 -14 63 2 77 39 18 47 -61 173 -85 134z m42 -101 c-2 -8 -11 -19
-21 -25 -15 -9 -22 -7 -38 13 l-20 24 28 17 c26 16 29 16 41 2 7 -9 11 -23 10
-31z"/>
<path d="M2258 820 c-10 -11 -18 -23 -18 -26 0 -3 27 -30 60 -61 64 -59 76
-94 41 -112 -21 -12 -42 2 -116 71 -22 21 -42 38 -45 38 -3 0 -11 -10 -19 -21
-12 -20 -9 -26 31 -65 54 -55 99 -84 128 -84 12 0 37 15 56 34 26 26 34 42 34
70 0 31 -10 46 -67 107 -67 70 -68 70 -85 49z"/>
<path d="M633 748 c-88 -90 -97 -130 -41 -187 51 -52 89 -41 184 52 l48 47
-21 21 -20 21 -53 -56 c-57 -60 -83 -74 -105 -56 -30 25 -17 56 46 114 59 55
61 58 44 76 -10 11 -21 20 -24 20 -4 0 -30 -24 -58 -52z"/>
<path d="M787 560 c-66 -99 -66 -99 -45 -114 21 -15 23 -13 59 47 57 93 60 97
54 62 -3 -16 -9 -61 -14 -100 -7 -64 -6 -71 13 -87 26 -21 32 -22 39 -4 3 8
31 53 63 101 54 82 56 87 38 100 -11 8 -21 15 -24 15 -3 0 -23 -32 -44 -71
-21 -38 -40 -68 -42 -66 -3 2 0 24 5 48 13 60 16 122 7 137 -4 6 -15 16 -25
22 -16 8 -28 -5 -84 -90z"/>
<path d="M2043 612 l-21 -17 70 -97 70 -98 52 43 c65 53 62 48 49 71 -10 18
-12 18 -45 -8 -19 -14 -38 -26 -41 -26 -3 0 -29 34 -58 75 -28 41 -52 75 -53
75 0 0 -11 -8 -23 -18z"/>
<path d="M1965 563 c-94 -49 -113 -140 -44 -214 27 -29 34 -31 78 -27 28 3 62
14 80 27 30 22 31 24 15 42 -16 18 -17 18 -42 -1 -33 -26 -64 -25 -90 3 -43
46 -24 113 36 132 15 4 21 12 18 22 -3 8 -6 19 -6 24 0 12 -10 11 -45 -8z"/>
<path d="M991 424 c-23 -58 -39 -109 -36 -114 2 -4 13 -10 24 -13 16 -4 23 6
42 67 28 90 39 102 39 46 0 -25 3 -68 6 -96 5 -42 11 -54 31 -63 26 -12 43 -7
43 12 0 6 16 53 36 105 30 77 34 96 23 103 -29 18 -39 7 -61 -63 l-22 -73 -7
45 c-4 25 -8 64 -8 88 -1 36 -5 44 -27 52 -14 6 -29 10 -34 10 -5 0 -27 -48
-49 -106z"/>
<path d="M1250 458 c0 -2 -11 -55 -24 -118 -14 -63 -24 -115 -23 -116 1 -1 14
-4 28 -7 l26 -7 22 116 c13 64 21 117 19 119 -5 5 -48 16 -48 13z"/>
<path d="M1644 441 c-53 -24 -74 -55 -74 -108 0 -80 40 -123 115 -123 53 0
108 25 101 47 -2 10 -8 37 -11 61 -7 44 -11 46 -64 36 -25 -5 -31 -11 -29 -28
2 -13 10 -21 23 -21 28 0 33 -41 7 -49 -57 -19 -113 66 -78 118 17 28 54 41
86 33 17 -4 20 0 20 24 0 25 -4 29 -27 29 -16 0 -47 -9 -69 -19z"/>
<path d="M1340 398 c0 -25 -3 -79 -6 -120 l-7 -75 27 -5 26 -5 0 83 c0 81 11
110 24 60 3 -13 18 -51 33 -85 23 -53 31 -61 54 -61 24 0 27 4 33 53 3 28 6
82 6 120 0 65 -1 67 -25 67 -25 0 -25 -1 -26 -82 0 -69 -2 -79 -11 -58 -6 14
-22 51 -36 83 -14 31 -30 57 -36 57 -6 0 -21 3 -33 6 -21 6 -23 3 -23 -38z"/>
</g>
</svg>
